<?xml version="1.0" encoding="utf-8"?>
<!-- Generator: Adobe Illustrator 16.0.0, SVG Export Plug-In . SVG Version: 6.00 Build 0)  -->
<!DOCTYPE svg PUBLIC "-//W3C//DTD SVG 1.1//EN" "http://www.w3.org/Graphics/SVG/1.1/DTD/svg11.dtd">
<svg version="1.1" id="Layer_1" xmlns="http://www.w3.org/2000/svg" xmlns:xlink="http://www.w3.org/1999/xlink" x="0px" y="0px"
	 width="612px" height="792px" viewBox="0 0 612 792" enable-background="new 0 0 612 792" xml:space="preserve">
<path fill="#86AD58" d="M151.408,176.571c-5.533,2.229-13.445,10.36-19.376,21.647c2.464-10.247,6.386-21.793,9.072-28.404
	c3.1-7.687,0.077-27.07-0.474-31.728c-1.203-9.932-17.44-13.571-28.047-18.81c-10.814-5.346-9.225-7.574-4.927-9.948
	c0.02,0,0.069-0.039,0.084-0.039c12.309-3.828,35.517,11.067,39.429,21.852c2.829,7.82,7.285,20.846,10.438,32.825
	C156.961,169.759,155.274,175.011,151.408,176.571z"/>
<path fill="#ADBB71" d="M525.154,318.129c-1.818-3.075-7.43-3.247-8.166-6.195c-0.33-1.321,1.287-3.588,3.152-5.667
	c6.092-1.561,10.695-3.043,13.52-4.806l7.758,11.565c-3.84,4.678-9.072,10.623-15.514,16.858
	C523.961,326.822,526.914,321.158,525.154,318.129z"/>
<linearGradient id="SVGID_1_" gradientUnits="userSpaceOnUse" x1="8150.8232" y1="-2083.8877" x2="8162.3037" y2="-1888.7375" gradientTransform="matrix(-0.6191 0.1541 0.1726 0.6963 5732.8838 464.8789)">
	<stop  offset="0.08" style="stop-color:#CAA02C"/>
	<stop  offset="0.383" style="stop-color:#CEA42B"/>
	<stop  offset="0.6962" style="stop-color:#D9B027"/>
	<stop  offset="0.9701" style="stop-color:#EBC11D"/>
</linearGradient>
<path fill="url(#SVGID_1_)" d="M130.952,203.045c0.314-1.541,0.67-3.173,1.08-4.827c5.932-11.288,13.843-19.419,19.376-21.647
	c3.866-1.56,5.553-6.812,6.199-12.604c2.082,7.852,4.547,16.036,8.257,25.079c9.375,22.799,65.789,111.39,123.651,142.024
	c57.867,30.634,138.301,9.562,157.756,1.562c14.346-5.904,49.383-18.642,66.699-24.895c2.207-0.503,4.246-1.002,6.17-1.47
	c-1.865,2.079-3.482,4.346-3.152,5.667c0.736,2.948,6.348,3.12,8.166,6.195c1.76,3.028-1.193,8.692,0.75,11.755
	c-8.896,8.575-20.09,17.749-33.1,24.948c-34.385,19.018-109.428,63.645-195.684,44.524
	c-48.131-10.695-104.715-33.544-139.715-90.303C125.139,248.863,129.625,209.655,130.952,203.045z"/>
<path fill="#B08849" d="M274.242,370.155c1.375,5.139,12.53,0.387,10.219,8.651c-0.35,1.239-0.69,2.225-1.041,2.983
	c-4.411-2.971-9.85-6.194-16.445-9.299c-0.055-0.242-0.132-0.483-0.227-0.724c-3.124-8.909,3.861-13.774,8.431-15.037
	C279.749,355.507,272.86,365.008,274.242,370.155z"/>
<path fill="#7E9D4E" d="M536.906,333.247c-3.369-2.066-8.76-0.172-10.91-3.21c-0.037-0.043-0.066-0.114-0.092-0.152
	c6.441-6.235,11.674-12.181,15.514-16.858l9.916,14.743c0,0-3.668,0.927-5.154,10.69c-0.182,1.155-0.561,3.327-1.307,6.26
	C543.086,344.807,542.574,336.699,536.906,333.247z"/>
<path fill="#A68B30" d="M297.121,399.356c86.256,19.121,161.299-25.506,195.684-44.524c13.01-7.199,24.203-16.373,33.1-24.948
	c0.025,0.038,0.055,0.109,0.092,0.152c2.15,3.038,7.541,1.144,10.91,3.21c5.668,3.452,6.18,11.561,7.967,11.473
	c-5.326,21.864-28.926,86.719-118.207,100.567c-46.695,7.242-150.011,21.238-229.028-76.47
	c-17.469-21.609-30.515-41.644-40.232-59.763C192.406,365.812,248.99,388.661,297.121,399.356z"/>
<path fill="#8B5E3C" d="M459.973,393.636c3.092-1.82-4.602-3.529,3.092-1.82c7.703,1.729,2.018,0.076,3.049,4.457
	c1.031,4.348,0.264,4.793-1.629,7.133c-1.863,2.322-2.25-4.885-8.459-1.266c-6.227,3.623-6.016-0.223-9.896,2.043
	c-3.898,2.266-5.508,9.414-5.508,9.414s-2.186,3.766-17.08,9.967c-14.881,6.166-25.555,8.67-16.236,3.254
	c9.309-5.443,4.42-6.037,14.752-8.615c18.564-4.605,15.857-10.49,17.717-12.812c1.871-2.322,8.096-5.961,8.096-5.961
	s0.389-7.645,9.311-5.424"/>
<g>
	<path fill="#CEBD53" d="M174.797,159.529c9.14,6.386,25.452,12.773,49.704,47.823c27.762,40.084,54.822,102.259,129.333,119.434
		c63.028,14.554,102.151-7.836,132.741-12.98c10.795-1.8,19.861-4.339,27.395-6.068c-17.316,6.253-52.354,18.99-66.699,24.895
		c-19.455,8.001-99.889,29.072-157.756-1.562c-57.862-30.634-108.692-103.352-123.651-142.024
		c-3.46-8.946-6.104-16.932-8.144-24.655C161.389,157.486,168.771,157.784,174.797,159.529z"/>
	<path fill="#B0CB70" d="M107.74,109.29c-2.111-1.726,17.495-11.138,20.768-11.972c12.492-3.107,18.473-6.63,18.473-6.63
		s12.146-5.053,11.663-0.892c-1.259,11.068-7.749,5.459-6.261,24.415c0.678,8.706,10.766,34.437,18.894,42.438
		c1.022,1.021,2.187,1.946,3.52,2.88c-6.026-1.745-13.409-2.043-17.077,4.862c-3.218-12.14-7.688-25.361-10.551-33.249
		C143.257,120.357,120.033,108.194,107.74,109.29z"/>
	<g>
		<g>
			<path fill="#9B9547" d="M130.354,104.535c1.81,1.524,8.495,8.914,12.54,18.345c4.088,9.338,8.268,22.948,9.108,26.509
				c1.573,7.055,3.692,14.597,5.216,15.151c1.787,0.633,1.476-3.746-1.148-14.574c-1.284-5.384-7.048-19.217-11.872-28.423
				c-4.949-9.393-11.676-15.779-13.285-16.876C129.268,103.478,129.057,103.497,130.354,104.535z"/>
		</g>
	</g>
</g>
<path fill="#9C815A" d="M157.794,88.664c1.797,1.242,1.305,3.396-0.682,4.119c-2.007,0.727-4.664,0.503-5.175,4.123
	c-0.325,2.322-4.191,4.288-5.547,3.808c-1.116-0.374-4.415-0.185-7.117,1.112c-2.695,1.301-11.693,7.535-13.687,4.716
	c-2.015-2.822-15.015,8.725-15.015,8.725l-6.532-2.354c0,0,1.44-4.457,2.913-5.128c1.488-0.684,20.155-13.752,21.708-13.938
	c1.555-0.152,5.593-2.604,7.522-3.831c1.92-1.226,4.135-0.464,5.403,0.935c1.246,1.372,2.611-0.896,5.08-1.376
	C149.988,88.963,153.387,85.599,157.794,88.664z"/>
<path fill="#7E6D51" d="M533.66,301.461c0,0,3.199-0.983,8.961,6.406s10.379,18.659,8.713,19.902
	c-1.67,1.262-6.363-3.899-11.852-12.4C533.99,306.861,530.66,304.042,533.66,301.461z"/>
<path fill="#8B5E3C" d="M512.098,377.262c0.301,1.188,1.596,1.913,2.904,1.596c1.309-0.331,2.109-1.596,1.824-2.783
	c-0.309-1.223-1.596-1.93-2.902-1.6C512.607,374.797,511.793,376.04,512.098,377.262z"/>
<path fill="#8B5E3C" d="M279.049,305.771c0.921,3.695,3.859,6.124,6.574,5.437c2.744-0.672,4.2-4.214,3.295-7.873
	c-0.898-3.713-3.859-6.143-6.594-5.458C279.606,298.548,278.149,302.074,279.049,305.771z"/>
<path fill="#8B5E3C" d="M247.758,294.535c0.636,2.579,2.694,4.288,4.598,3.808c1.91-0.467,2.936-2.955,2.3-5.533
	c-0.632-2.562-2.705-4.272-4.619-3.805C248.137,289.485,247.116,291.973,247.758,294.535z"/>
<path fill="#8B5E3C" d="M478.432,399.337c0.445,1.801,2.404,2.881,4.373,2.395c1.949-0.479,3.176-2.336,2.715-4.156
	c-0.445-1.826-2.404-2.895-4.363-2.416C479.197,395.663,477.984,397.515,478.432,399.337z"/>
<path fill="#8B5E3C" d="M238.267,270.88c0.424,1.709,1.81,2.861,3.078,2.53c1.255-0.299,1.95-1.931,1.512-3.659
	c-0.406-1.707-1.796-2.842-3.055-2.524C238.533,267.543,237.852,269.177,238.267,270.88z"/>
<path fill="#8B5E3C" d="M485.229,381.644c0.291,1.187,1.596,1.933,2.902,1.596c1.305-0.314,2.131-1.557,1.816-2.764
	c-0.293-1.206-1.6-1.91-2.904-1.599C485.742,379.192,484.934,380.458,485.229,381.644z"/>
<g>
	<path fill="#C4A054" d="M141.217,229.84c9.983,2.072,15.563,8.293,11.761,9.222c-3.727,0.946-15.16-3.416-20.324,3.101
		c-1.456-7.704-2.196-14.389-2.5-19.994C136.306,221.76,132.359,227.997,141.217,229.84z"/>
</g>
<path fill="#B6974E" d="M162.014,254.211c1.185,2.712,5.336,3.344,9.264,1.408c3.918-1.93,6.13-5.711,4.94-8.388
	c-1.184-2.727-5.325-3.36-9.245-1.427C163.045,247.754,160.824,251.5,162.014,254.211z"/>
<path fill="#86AD58" d="M134.441,186.45c-6.954,1.593-17.657,9.65-26.492,21.797c4.53-11.589,11.021-24.434,15.241-31.693
	c4.904-8.43,4.269-31.806,4.324-37.411c0.107-11.917-18.745-19.27-30.597-27.44c-12.085-8.355-9.83-10.691-4.342-12.627
	c0.025-0.033,0.068-0.033,0.094-0.052c15.31-2.138,40.717,19.792,43.732,33.194c2.187,9.747,5.479,25.916,7.409,40.599
	C142.144,179.502,139.307,185.37,134.441,186.45z"/>
<path fill="#ADBB71" d="M559.076,424.032c-1.684-3.959-8.355-5.221-8.779-8.824c-0.189-1.627,2.082-3.969,4.631-6.084
	c7.525-0.633,13.25-1.525,16.906-3.084l7.48,15.113c-5.297,4.748-12.488,10.73-21.156,16.857
	C556.332,434.019,560.74,427.931,559.076,424.032z"/>
<linearGradient id="SVGID_2_" gradientUnits="userSpaceOnUse" x1="8178.2324" y1="-410.2349" x2="8189.7114" y2="-215.1087" gradientTransform="matrix(-0.7634 0.0634 0.0986 0.8518 6613.4185 158.3823)">
	<stop  offset="0.08" style="stop-color:#CAA02C"/>
	<stop  offset="0.1339" style="stop-color:#CEA42B"/>
	<stop  offset="0.436" style="stop-color:#E4BA22"/>
	<stop  offset="0.63" style="stop-color:#ECC21C"/>
</linearGradient>
<path fill="url(#SVGID_2_)" d="M105.914,213.719c0.626-1.778,1.314-3.62,2.035-5.472c8.835-12.147,19.538-20.204,26.492-21.797
	c4.866-1.08,7.703-6.948,9.368-13.632c1.239,9.62,2.942,19.721,5.988,31.064c7.677,28.608,61.371,143.549,125.781,190.574
	c64.407,47.006,163.756,37.533,188.225,31.857c18.061-4.197,61.871-12.568,83.529-16.633c2.715-0.15,5.242-0.336,7.596-0.557
	c-2.549,2.115-4.82,4.457-4.631,6.084c0.424,3.604,7.096,4.865,8.779,8.824c1.664,3.898-2.744,9.986-0.918,13.979
	c-11.943,8.41-26.73,17.037-43.393,23.02c-44.027,15.854-140.539,54.064-240.645,15.15
	c-55.856-21.688-119.923-59.338-152.952-132.746C91.911,266.501,103.323,221.238,105.914,213.719z"/>
<path fill="#8B5E3C" d="M251.309,437.489c0.837,6.311,14.901,2.855,10.869,12.141c-0.606,1.393-1.184,2.486-1.713,3.305
	c-4.796-4.34-10.814-9.135-18.195-14.074c-0.047-0.271-0.095-0.57-0.159-0.889c-2.369-11.025,6.732-15.465,12.374-16.074
	C260.125,421.3,250.437,431.177,251.309,437.489z"/>
<path fill="#7E9D4E" d="M570.789,444.021c-3.697-3.039-10.426-1.852-12.527-5.787c-0.049-0.078-0.074-0.148-0.104-0.223
	c8.668-6.127,15.859-12.109,21.156-16.857l9.551,19.215c0,0-4.518,0.352-7.801,11.584c-0.396,1.32-1.191,3.805-2.496,7.113
	C576.381,458.802,577.043,449.185,570.789,444.021z"/>
<path fill="#A68B30" d="M274.121,476.181c100.106,38.914,196.618,0.703,240.645-15.15c16.662-5.982,31.449-14.609,43.393-23.02
	c0.029,0.074,0.055,0.145,0.104,0.223c2.102,3.936,8.83,2.748,12.527,5.787c6.254,5.164,5.592,14.781,7.779,15.045
	c-9.777,24.689-47.971,96.5-156.768,95.795c-56.902-0.375-182.483-3.529-261.791-133.486c-17.544-28.76-30.031-54.791-38.841-77.939
	C154.198,416.843,218.264,454.493,274.121,476.181z"/>
<path fill="#8B5E3C" d="M469.539,500.423c3.992-1.52-4.932-5.004,3.992-1.52c8.951,3.488,2.395,0.482,2.951,5.791
	c0.578,5.312-0.426,5.719-3.029,8.1c-2.598,2.375-1.949-6.166-9.945-3.084c-7.967,3.045-7.141-1.412-12.127,0.518
	c-4.988,1.893-8.025,9.988-8.025,9.988s-3.217,4.012-21.945,8.508c-18.73,4.416-31.873,5.342-19.896,0.701
	c11.959-4.604,6.215-6.238,18.943-7.312c22.898-1.896,20.561-9.285,23.152-11.66c2.605-2.416,10.59-5.459,10.59-5.459
	s1.639-8.949,11.963-4.641"/>
<g>
	<path fill="#BDAE4C" d="M165.025,170.85c9.921,9.27,28.429,19.866,52.01,65.704c26.969,52.429,49.675,130.686,136.054,165.104
		c73.038,29.074,123.226,10.213,160.581,9.953c13.17-0.055,24.391-1.338,33.662-1.93c-21.658,4.064-65.469,12.436-83.529,16.633
		c-24.469,5.676-123.818,15.148-188.225-31.857c-64.41-47.025-113.868-142.252-125.781-190.574
		c-2.76-11.197-4.674-21.07-5.919-30.542C149.316,165.936,158.107,167.658,165.025,170.85z"/>
	<path fill="#B0CB70" d="M92.667,99.024c-2.241-2.43,22.633-9.783,26.685-10.12c15.38-1.278,23.074-4.272,23.074-4.272
		s15.293-3.639,14.074,1.155c-3.211,12.773-10.098,4.923-11.245,27.508c-0.54,10.364,7.56,42.556,16.009,53.532
		c1.062,1.388,2.329,2.692,3.761,4.022c-6.918-3.192-15.709-4.914-21.148,2.491c-1.979-14.888-5.252-31.264-7.477-41.122
		C133.384,118.816,107.529,100.082,92.667,99.024z"/>
	<g>
		<g>
			<path fill="#9B9547" d="M120.429,97.743c1.92,2.115,8.761,12.108,12.148,23.951c3.424,11.749,6.321,28.589,6.775,32.899
				c0.779,8.612,2.17,17.859,3.89,18.826c2.043,1.109,2.334-4.104,0.891-17.343c-0.709-6.588-5.458-23.986-9.795-35.718
				c-4.466-11.979-11.514-20.759-13.256-22.354C119.284,96.293,119.047,96.293,120.429,97.743z"/>
		</g>
	</g>
</g>
<path fill="#9C815A" d="M155.664,84.282c1.949,1.803,1.044,4.252-1.466,4.739c-2.498,0.441-5.641-0.302-6.805,3.841
	c-0.737,2.653-5.667,4.245-7.227,3.432c-1.268-0.665-5.242-1.074-8.664-0.055c-3.418,1.022-15.125,6.629-17.08,2.951
	c-1.962-3.714-19.315,7.428-19.315,7.428l-7.409-4.032c0,0,2.417-4.976,4.279-5.479c1.865-0.512,26.198-12.357,28.073-12.244
	c1.884,0.086,7.087-2.008,9.576-3.085c2.478-1.08,5.017,0.259,6.312,2.112c1.277,1.862,3.267-0.551,6.292-0.629
	C146.287,83.147,150.867,79.849,155.664,84.282z"/>
<path fill="#7E6D51" d="M571.834,406.04c0,0,3.963-0.559,9.703,9.246c5.746,9.783,9.52,23.912,7.328,25.082
	c-2.186,1.152-6.996-5.812-12.229-16.84C571.385,412.462,567.838,408.526,571.834,406.04z"/>
<path fill="#8B5E3C" d="M534.361,491.069c0.158,1.484,1.607,2.602,3.207,2.451c1.629-0.15,2.779-1.449,2.611-2.936
	c-0.168-1.484-1.615-2.559-3.225-2.414C535.354,488.286,534.174,489.622,534.361,491.069z"/>
<path fill="#8B5E3C" d="M266.996,362.705c0.509,4.499,3.671,7.946,7.019,7.652c3.343-0.279,5.658-4.162,5.141-8.653
	c-0.522-4.529-3.662-7.941-7.042-7.646C268.772,354.316,266.483,358.197,266.996,362.705z"/>
<path fill="#8B5E3C" d="M231.342,343.545c0.36,3.14,2.552,5.534,4.901,5.352c2.357-0.191,3.966-2.912,3.597-6.056
	c-0.36-3.175-2.566-5.568-4.921-5.384C232.571,337.666,230.962,340.374,231.342,343.545z"/>
<path fill="#8B5E3C" d="M490.723,510.673c0.242,2.189,2.422,3.863,4.836,3.639c2.42-0.223,4.172-2.148,3.928-4.381
	c-0.256-2.227-2.436-3.859-4.855-3.639C492.217,506.476,490.469,508.444,490.723,510.673z"/>
<path fill="#8B5E3C" d="M223.658,313.919c0.237,2.117,1.712,3.694,3.266,3.564c1.57-0.133,2.64-1.931,2.384-4.032
	c-0.236-2.095-1.703-3.694-3.266-3.562C224.481,310.02,223.415,311.821,223.658,313.919z"/>
<path fill="#8B5E3C" d="M501.584,491.144c0.172,1.486,1.6,2.562,3.209,2.449c1.619-0.143,2.779-1.443,2.621-2.934
	c-0.182-1.484-1.625-2.562-3.234-2.447C502.576,488.356,501.402,489.696,501.584,491.144z"/>
<g>
	<path fill="#C4A054" d="M114.052,247.196c11.599,4.323,17.324,12.695,12.61,13.103c-4.579,0.374-17.56-6.938-24.741-0.259
		c-0.568-9.319-0.409-17.34,0.094-23.99C109.437,236.758,103.767,243.333,114.052,247.196z"/>
</g>
<path fill="#8B5E3C" d="M135.132,279.816c1.016,3.396,5.868,4.953,10.846,3.396c4.972-1.525,8.209-5.537,7.207-8.952
	c-0.995-3.415-5.854-4.94-10.833-3.415C137.347,272.386,134.13,276.381,135.132,279.816z"/>
<path fill="#86AD58" d="M74.121,185.968c-7.172-0.412-19.481,4.358-30.855,13.568c7.021-9.822,16.227-20.364,21.99-26.14
	c6.691-6.737,11.239-29.257,12.527-34.586c2.744-11.362-14.146-23.542-23.997-34.589c-10.029-11.284-7.303-12.899-1.482-13.269
	c0.036,0,0.084,0,0.12,0c15.511,2.115,35.644,30.016,35.628,43.661c0,9.876-0.355,26.25-1.713,40.827
	C83.223,181.394,79.145,186.224,74.121,185.968z"/>
<path fill="#ADBB71" d="M438.846,528.829c-0.787-4.234-7.072-7.275-6.682-10.842c0.178-1.633,2.922-3.264,5.912-4.568
	c7.545,1.451,13.34,2.156,17.277,1.676l4.02,16.445c-6.273,3.119-14.654,6.912-24.514,10.363
	C433.924,537.63,439.6,532.991,438.846,528.829z"/>
<linearGradient id="SVGID_3_" gradientUnits="userSpaceOnUse" x1="9315.832" y1="837.5381" x2="9048.6211" y2="790.7793" gradientTransform="matrix(-0.7642 -0.1472 -0.0916 0.8412 7419.1011 1031.812)">
	<stop  offset="0.8726" style="stop-color:#CAA02C"/>
	<stop  offset="1" style="stop-color:#ECC21C"/>
</linearGradient>
<path fill="url(#SVGID_3_)" d="M40.07,204.232c0.989-1.557,2.06-3.117,3.196-4.696c11.375-9.209,23.684-13.98,30.855-13.568
	c5.024,0.256,9.102-4.574,12.219-10.529c-0.892,9.562-1.47,19.659-0.987,31.339c1.223,29.468,28.557,153.959,81.446,216.491
	c52.875,62.529,152.625,80.537,177.905,81.762c18.677,0.893,63.587,4.863,85.772,6.869c2.695,0.559,5.221,1.08,7.6,1.52
	c-2.99,1.305-5.734,2.936-5.912,4.568c-0.391,3.566,5.895,6.607,6.682,10.842c0.754,4.162-4.922,8.801-3.986,13.074
	c-13.607,4.824-30.049,9.021-47.756,10.244c-46.771,3.121-150.076,13.367-239.831-51.096
	C97.169,465.079,42.564,411.61,26.34,332.411C14.615,250.871,35.837,210.693,40.07,204.232z"/>
<path fill="#8B5E3C" d="M133.403,457.835c-0.571,6.236,14.038,6.756,8.002,14.557c-0.899,1.188-1.701,2.045-2.41,2.709
	c-3.759-5.455-8.605-11.697-14.774-18.453c0.019-0.26,0.048-0.559,0.048-0.854c0.124-11.23,10.033-12.98,15.715-11.994
	C145.674,444.728,133.961,451.562,133.403,457.835z"/>
<path fill="#7E9D4E" d="M445.918,551.146c-2.971-3.936-9.83-4.641-11.021-8.98c-0.029-0.08-0.029-0.191-0.037-0.262
	c9.859-3.451,18.24-7.244,24.514-10.363l5.131,20.979c0,0-4.531-0.85-10.238,8.986c-0.672,1.152-2.016,3.303-4.029,6.131
	C448.152,566.776,450.914,557.755,445.918,551.146z"/>
<path fill="#A68B30" d="M147.272,501.052c89.755,64.463,193.06,54.217,239.831,51.096c17.707-1.223,34.148-5.42,47.756-10.244
	c0.008,0.07,0.008,0.182,0.037,0.262c1.191,4.34,8.051,5.045,11.021,8.98c4.996,6.609,2.234,15.631,4.318,16.49
	c-15.072,20.938-68.494,79.193-175.275,48.861C219.133,600.64,96.43,563.399,47.258,417.528
	c-10.878-32.284-17.388-60.555-20.918-85.118C42.564,411.61,97.169,465.079,147.272,501.052z"/>
<path fill="#856F47" d="M333.949,577.474c4.256-0.373-3.74-6.127,4.256-0.373c8.014,5.758,2.26,1.115,1.617,6.348
	c-0.623,5.238-1.684,5.346-4.758,6.912c-3.084,1.594-0.559-6.43-9.082-5.646c-8.523,0.74-6.721-3.309-12.047-2.822
	s-10.104,7.389-10.104,7.389s-4.031,2.969-23.438,2.117c-19.38-0.859-32.503-3.566-19.728-4.715
	c12.793-1.152,7.499-4.271,20.243-1.824c22.922,4.422,22.261-3.301,25.345-4.865c3.085-1.592,11.608-2.373,11.608-2.373
	s3.595-8.098,12.783-1.115"/>
<g>
	<rect x="173.453" y="487.499" fill="#FFFFFF" width="84.751" height="84.75"/>
	<g>
		<polygon fill="#010101" points="176.447,491.298 177.623,491.298 177.623,564.384 176.447,564.384 176.447,491.298 		"/>
		<polygon fill="#010101" points="178.797,491.298 179.974,491.298 179.974,564.384 178.797,564.384 178.797,491.298 		"/>
		<polygon fill="#010101" points="182.325,491.298 184.675,491.298 184.675,548.995 182.325,548.995 182.325,491.298 		"/>
		<polygon fill="#010101" points="187.027,491.298 188.202,491.298 188.202,548.995 187.027,548.995 187.027,491.298 		"/>
		<polygon fill="#010101" points="190.554,491.298 191.729,491.298 191.729,548.995 190.554,548.995 190.554,491.298 		"/>
		<polygon fill="#010101" points="194.081,491.298 196.431,491.298 196.431,548.995 194.081,548.995 194.081,491.298 		"/>
		<polygon fill="#010101" points="197.607,491.298 202.311,491.298 202.311,548.995 197.607,548.995 197.607,491.298 		"/>
		<polygon fill="#010101" points="203.485,491.298 204.661,491.298 204.661,548.995 203.485,548.995 203.485,491.298 		"/>
		<polygon fill="#010101" points="205.836,491.298 207.012,491.298 207.012,548.995 205.836,548.995 205.836,491.298 		"/>
		<polygon fill="#010101" points="210.539,491.298 212.89,491.298 212.89,548.995 210.539,548.995 210.539,491.298 		"/>
		<polygon fill="#010101" points="214.065,491.298 215.242,491.298 215.242,564.384 214.065,564.384 214.065,491.298 		"/>
		<polygon fill="#010101" points="216.417,491.298 217.592,491.298 217.592,564.384 216.417,564.384 216.417,491.298 		"/>
		<polygon fill="#010101" points="218.768,491.298 219.944,491.298 219.944,548.995 218.768,548.995 218.768,491.298 		"/>
		<polygon fill="#010101" points="222.295,491.298 225.821,491.298 225.821,548.995 222.295,548.995 222.295,491.298 		"/>
		<polygon fill="#010101" points="226.997,491.298 228.173,491.298 228.173,548.995 226.997,548.995 226.997,491.298 		"/>
		<polygon fill="#010101" points="229.349,491.298 230.524,491.298 230.524,548.995 229.349,548.995 229.349,491.298 		"/>
		<polygon fill="#010101" points="235.226,491.298 236.402,491.298 236.402,548.995 235.226,548.995 235.226,491.298 		"/>
		<polygon fill="#010101" points="239.929,491.298 241.105,491.298 241.105,548.995 239.929,548.995 239.929,491.298 		"/>
		<polygon fill="#010101" points="243.455,491.298 244.632,491.298 244.632,548.995 243.455,548.995 243.455,491.298 		"/>
		<polygon fill="#010101" points="246.983,491.298 248.157,491.298 248.157,548.995 246.983,548.995 246.983,491.298 		"/>
		<polygon fill="#010101" points="251.686,491.298 252.86,491.298 252.86,564.384 251.686,564.384 251.686,491.298 		"/>
		<polygon fill="#010101" points="254.037,491.298 255.211,491.298 255.211,564.384 254.037,564.384 254.037,491.298 		"/>
		<path fill="#010101" d="M191.224,568.229h-0.93v-9.695c-0.224,0.35-0.517,0.699-0.881,1.049c-0.363,0.348-0.69,0.611-0.979,0.787
			v-1.473c0.521-0.398,0.975-0.885,1.363-1.451c0.389-0.572,0.665-1.123,0.827-1.658h0.6V568.229L191.224,568.229z"/>
		<path fill="#010101" d="M198.498,566.767v1.463h-5.006c-0.006-0.367,0.03-0.719,0.109-1.057c0.127-0.559,0.331-1.107,0.612-1.648
			s0.687-1.166,1.217-1.875c0.824-1.105,1.379-1.98,1.669-2.627c0.29-0.645,0.433-1.256,0.433-1.828
			c0-0.604-0.131-1.111-0.395-1.525c-0.263-0.414-0.607-0.621-1.031-0.621c-0.448,0-0.805,0.219-1.074,0.66
			c-0.269,0.438-0.404,1.047-0.408,1.824l-0.956-0.16c0.065-1.166,0.311-2.057,0.738-2.668c0.428-0.609,1-0.916,1.721-0.916
			c0.726,0,1.301,0.328,1.725,0.988c0.424,0.66,0.635,1.477,0.635,2.451c0,0.494-0.062,0.982-0.186,1.463
			c-0.124,0.479-0.33,0.984-0.618,1.512c-0.287,0.529-0.765,1.256-1.433,2.182c-0.558,0.768-0.916,1.285-1.075,1.559
			c-0.159,0.273-0.289,0.549-0.393,0.824H198.498L198.498,566.767z"/>
		<path fill="#010101" d="M199.506,564.958l0.929-0.203c0.107,0.863,0.289,1.482,0.545,1.863s0.569,0.57,0.938,0.57
			c0.438,0,0.807-0.246,1.108-0.742c0.302-0.498,0.452-1.111,0.452-1.844c0-0.699-0.139-1.273-0.418-1.727
			c-0.279-0.455-0.634-0.682-1.065-0.682c-0.175,0-0.394,0.057-0.656,0.168l0.104-1.336c0.062,0.012,0.112,0.02,0.15,0.02
			c0.396,0,0.752-0.172,1.069-0.508c0.316-0.34,0.475-0.859,0.475-1.564c0-0.557-0.115-1.02-0.345-1.385
			c-0.232-0.367-0.53-0.551-0.895-0.551c-0.361,0-0.663,0.186-0.904,0.561c-0.241,0.369-0.396,0.928-0.465,1.672l-0.93-0.27
			c0.113-1.021,0.371-1.811,0.775-2.373c0.402-0.561,0.904-0.84,1.503-0.84c0.414,0,0.793,0.145,1.142,0.436
			c0.347,0.289,0.614,0.686,0.797,1.186c0.186,0.504,0.277,1.037,0.277,1.598c0,0.537-0.088,1.025-0.263,1.463
			c-0.176,0.439-0.437,0.791-0.78,1.047c0.447,0.17,0.796,0.521,1.043,1.055c0.248,0.531,0.372,1.199,0.372,1.998
			c0,1.082-0.241,2-0.723,2.75c-0.482,0.752-1.092,1.129-1.829,1.129c-0.665,0-1.217-0.324-1.656-0.971
			C199.818,566.827,199.567,565.989,199.506,564.958L199.506,564.958L199.506,564.958z"/>
		<path fill="#010101" d="M208.371,568.229v-2.967h-3.286v-1.395l3.456-8.029h0.759v8.029h1.024v1.395H209.3v2.967H208.371
			L208.371,568.229z M208.371,563.868v-5.586l-2.372,5.586H208.371L208.371,563.868z"/>
		<path fill="#010101" d="M220.082,564.983l0.977-0.135c0.072,0.777,0.241,1.361,0.503,1.754c0.265,0.391,0.582,0.586,0.954,0.586
			c0.448,0,0.827-0.275,1.137-0.828s0.464-1.283,0.464-2.197c0-0.867-0.148-1.553-0.446-2.053c-0.298-0.502-0.688-0.752-1.17-0.752
			c-0.3,0-0.569,0.109-0.811,0.332c-0.241,0.223-0.43,0.512-0.568,0.867l-0.874-0.186l0.734-6.365h3.766v1.455h-3.022l-0.409,3.33
			c0.455-0.52,0.932-0.779,1.431-0.779c0.663,0,1.219,0.375,1.674,1.125c0.455,0.748,0.683,1.713,0.683,2.893
			c0,1.121-0.2,2.088-0.6,2.904c-0.486,1.004-1.148,1.504-1.989,1.504c-0.689,0-1.251-0.314-1.686-0.945
			C220.393,566.862,220.145,566.024,220.082,564.983L220.082,564.983L220.082,564.983z"/>
		<path fill="#010101" d="M230.796,558.872l-0.924,0.119c-0.083-0.598-0.2-1.031-0.352-1.303c-0.251-0.434-0.561-0.65-0.929-0.65
			c-0.296,0-0.557,0.137-0.781,0.408c-0.292,0.348-0.523,0.857-0.692,1.527s-0.256,1.627-0.264,2.865
			c0.224-0.557,0.499-0.971,0.822-1.242c0.323-0.27,0.662-0.406,1.017-0.406c0.62,0,1.147,0.373,1.584,1.121
			c0.435,0.748,0.653,1.711,0.653,2.895c0,0.777-0.103,1.498-0.308,2.168c-0.204,0.666-0.486,1.18-0.844,1.535
			c-0.358,0.354-0.765,0.529-1.219,0.529c-0.775,0-1.407-0.465-1.896-1.398c-0.489-0.932-0.734-2.467-0.734-4.611
			c0-2.393,0.27-4.133,0.811-5.221c0.472-0.945,1.107-1.42,1.906-1.42c0.595,0,1.084,0.273,1.464,0.818
			C230.492,557.155,230.721,557.909,230.796,558.872L230.796,558.872L230.796,558.872z M227,564.216
			c0,0.523,0.068,1.023,0.204,1.502c0.136,0.479,0.326,0.844,0.57,1.094c0.245,0.252,0.501,0.377,0.77,0.377
			c0.393,0,0.73-0.258,1.013-0.775c0.283-0.52,0.424-1.225,0.424-2.115c0-0.855-0.14-1.529-0.419-2.021
			c-0.278-0.496-0.629-0.742-1.054-0.742c-0.419,0-0.776,0.246-1.069,0.742C227.146,562.769,227,563.415,227,564.216L227,564.216
			L227,564.216z"/>
		<path fill="#010101" d="M231.923,557.462v-1.463h4.903v1.182c-0.483,0.842-0.96,1.955-1.434,3.348
			c-0.473,1.391-0.839,2.822-1.097,4.295c-0.186,1.037-0.305,2.172-0.357,3.406h-0.955c0.01-0.977,0.127-2.152,0.351-3.533
			s0.546-2.711,0.964-3.994c0.418-1.281,0.864-2.361,1.336-3.24H231.923L231.923,557.462z"/>
		<path fill="#010101" d="M239.182,561.511c-0.387-0.232-0.672-0.562-0.858-0.988c-0.187-0.432-0.279-0.943-0.279-1.541
			c0-0.9,0.199-1.658,0.595-2.271c0.396-0.615,0.922-0.922,1.581-0.922c0.662,0,1.193,0.312,1.596,0.941
			c0.404,0.629,0.605,1.395,0.605,2.295c0,0.574-0.093,1.074-0.278,1.502c-0.184,0.426-0.463,0.752-0.838,0.984
			c0.465,0.246,0.819,0.646,1.062,1.199c0.242,0.553,0.365,1.211,0.365,1.977c0,1.061-0.229,1.951-0.688,2.672
			c-0.458,0.721-1.061,1.08-1.808,1.08c-0.748,0-1.35-0.359-1.808-1.084c-0.459-0.725-0.688-1.627-0.688-2.709
			c0-0.807,0.125-1.479,0.374-2.025C238.364,562.075,238.72,561.706,239.182,561.511L239.182,561.511L239.182,561.511z
			 M238.996,558.931c0,0.586,0.114,1.064,0.345,1.439c0.23,0.371,0.53,0.557,0.899,0.557c0.358,0,0.651-0.184,0.881-0.553
			s0.343-0.824,0.343-1.357c0-0.557-0.117-1.027-0.354-1.408c-0.236-0.379-0.528-0.57-0.88-0.57c-0.355,0-0.65,0.186-0.883,0.561
			C239.113,557.968,238.996,558.415,238.996,558.931L238.996,558.931L238.996,558.931z M238.696,564.653
			c0,0.434,0.063,0.855,0.188,1.26c0.125,0.404,0.314,0.721,0.562,0.941c0.248,0.225,0.515,0.334,0.8,0.334
			c0.445,0,0.811-0.232,1.101-0.701c0.291-0.467,0.434-1.062,0.434-1.783c0-0.732-0.148-1.338-0.447-1.818
			c-0.298-0.479-0.67-0.717-1.118-0.717c-0.438,0-0.801,0.236-1.088,0.711C238.84,563.351,238.696,563.944,238.696,564.653
			L238.696,564.653L238.696,564.653z"/>
	</g>
</g>
<path opacity="0.4" fill="#A68B30" d="M147.272,501.052c89.755,64.463,193.06,54.217,239.831,51.096
	c17.707-1.223,34.148-5.42,47.756-10.244c0.008,0.07,0.008,0.182,0.037,0.262c1.191,4.34,8.051,5.045,11.021,8.98
	c4.996,6.609,2.234,15.631,4.318,16.49c-15.072,20.938-68.494,79.193-175.275,48.861C219.133,600.64,96.43,563.399,47.258,417.528
	c-10.878-32.284-17.388-60.555-20.918-85.118C42.564,411.61,97.169,465.079,147.272,501.052z"/>
<g>
	<path fill="#DFCB59" d="M107.627,179.357c7.713,11.55,23.542,26.737,36.57,76.973c14.902,57.475,19.918,138.534,97.184,194.972
		c65.315,47.715,118.824,43.336,155.584,53.283c12.971,3.494,24.277,5.346,33.512,7.314c-22.186-2.006-67.096-5.977-85.772-6.869
		c-25.28-1.225-125.03-19.232-177.905-81.762c-52.889-62.532-80.433-167.033-81.446-216.491
		c-0.236-11.456,0.068-21.408,0.938-30.797C93.284,170.353,101.525,174.42,107.627,179.357z"/>
	<path fill="#B0CB70" d="M52.425,90.951c-1.674-2.932,24.405-3.195,28.443-2.417c15.416,2.968,23.619,2.192,23.619,2.192
		s15.848,0.668,13.584,4.934c-5.967,11.361-11.001,1.968-17.135,23.25c-2.819,9.802-1.985,42.769,3.898,55.565
		c0.729,1.592,1.687,3.192,2.793,4.881c-6.102-4.937-14.343-9.004-21.336-3.376c1.359-14.78,1.762-31.356,1.762-41.368
		C88.068,120.967,66.788,96.018,52.425,90.951z"/>
	<g>
		<g>
			<path fill="#9B9547" d="M79.978,97.26c1.412,2.558,5.934,13.979,6.643,26.214c0.766,12.199-0.094,29.052-0.606,33.308
				c-1.151,8.463-1.846,17.694-0.35,19.082c1.749,1.596,3.198-3.305,4.704-16.354c0.756-6.481-0.059-24.418-1.722-36.779
				c-1.742-12.695-6.718-23.019-8.081-25.047C79.194,95.592,78.931,95.515,79.978,97.26z"/>
		</g>
	</g>
</g>
<path fill="#9C815A" d="M117.582,94.009c1.515,2.268,0.074,4.363-2.468,4.123c-2.566-0.243-5.489-1.8-7.542,1.804
	c-1.317,2.374-6.533,2.543-7.862,1.336c-1.109-0.966-4.914-2.452-8.508-2.417c-3.587,0.059-16.331,2.229-17.451-1.816
	c-1.106-4.07-20.605,1.816-20.605,1.816l-6.396-5.867c0,0,3.461-4.083,5.41-4.083c1.943,0.039,28.485-4.642,30.298-4.041
	c1.816,0.586,7.421,0,10.097-0.357c2.679-0.354,4.872,1.615,5.722,3.752c0.863,2.134,3.341,0.35,6.334,1.09
	C108.622,90.374,113.851,88.46,117.582,94.009z"/>
<path fill="#7E6D51" d="M455.354,515.095c0,0,4.02,0.557,7.502,11.471c3.475,10.92,4.053,25.469,1.648,25.953
	c-2.412,0.521-5.605-7.422-8.307-19.416C453.5,521.11,450.889,516.392,455.354,515.095z"/>
<path fill="#856F47" d="M399.715,586.2c-0.168,1.449,1.016,2.895,2.623,3.193c1.6,0.295,3.049-0.6,3.199-2.082
	c0.158-1.449-1.012-2.896-2.635-3.195C401.307,583.823,399.859,584.753,399.715,586.2z"/>
<path fill="#8B5E3C" d="M165.372,390.577c-0.474,4.453,1.859,8.592,5.206,9.225c3.366,0.648,6.49-2.41,6.98-6.871
	c0.473-4.455-1.862-8.594-5.209-9.243C168.985,383.055,165.864,386.12,165.372,390.577z"/>
<path fill="#8B5E3C" d="M134.574,362.524c-0.334,3.113,1.294,6.029,3.642,6.48c2.358,0.444,4.545-1.709,4.872-4.83
	c0.35-3.12-1.287-5.997-3.642-6.441C137.101,357.251,134.915,359.441,134.574,362.524z"/>
<path fill="#856F47" d="M352.492,593.03c-0.237,2.191,1.53,4.346,3.953,4.787c2.423,0.49,4.58-0.889,4.817-3.117
	c0.246-2.189-1.541-4.305-3.944-4.787C354.885,589.431,352.738,590.841,352.492,593.03z"/>
<path fill="#8B5E3C" d="M133.578,332.112c-0.217,2.099,0.863,4.013,2.437,4.308c1.559,0.315,3.017-1.112,3.233-3.211
	c0.227-2.062-0.844-3.993-2.414-4.288C135.265,328.619,133.809,330.069,133.578,332.112z"/>
<path fill="#856F47" d="M367.475,577.325c-0.146,1.445,1.031,2.893,2.646,3.191c1.609,0.336,3.035-0.59,3.207-2.043
	c0.143-1.48-1.021-2.895-2.644-3.229C369.069,574.946,367.643,575.876,367.475,577.325z"/>
<g>
	<path fill="#8B5E3C" d="M40.647,238.451c10.445,7.295,14.211,16.876,9.498,15.946c-4.586-0.893-15.744-11.398-24.271-6.961
		c1.524-9.079,3.448-16.711,5.417-22.893C38.413,227.216,31.38,231.932,40.647,238.451z"/>
</g>
<path fill="#8B5E3C" d="M54.147,275.379c0.226,3.542,4.654,6.308,9.905,6.215c5.235-0.11,9.293-3.062,9.057-6.587
	c-0.218-3.526-4.665-6.315-9.907-6.238C57.971,268.915,53.901,271.847,54.147,275.379z"/>
<g>
</g>
<g>
</g>
<g>
</g>
<g>
</g>
<g>
</g>
<g>
</g>
</svg>
