<?xml version="1.0" encoding="utf-8"?>
<!-- Generator: Adobe Illustrator 17.0.0, SVG Export Plug-In . SVG Version: 6.00 Build 0)  -->
<!DOCTYPE svg PUBLIC "-//W3C//DTD SVG 1.1//EN" "http://www.w3.org/Graphics/SVG/1.1/DTD/svg11.dtd">
<svg version="1.1" id="Layer_1" xmlns="http://www.w3.org/2000/svg" xmlns:xlink="http://www.w3.org/1999/xlink" x="0px" y="0px"
	 width="1023.984px" height="1023.984px" viewBox="0 0 1023.984 1023.984" enable-background="new 0 0 1023.984 1023.984"
	 xml:space="preserve">
<g>
	<g>
		<path fill-rule="evenodd" clip-rule="evenodd" fill="#FFFFFF" d="M477.448,783.956c11.905-83.892,23.579-166.175,36.526-257.382
			c-84.941,34.259-162.742,65.637-240.344,96.938c-44.676-78.704-25.142-218.788,69.282-298.458
			c94.464-79.685,229.934-84.144,330.189-10.211c97.074,71.581,131.909,203.764,83.301,316.085
			C709.965,738.261,591.73,805.512,477.448,783.956z"/>
		<path fill-rule="evenodd" clip-rule="evenodd" fill="#FFFFFF" d="M475.227,829.766c93.444,5.823,175.957-16.109,244.587-78.827
			c111.461-101.872,131.994-265.28,49.818-392.715C690.597,235.647,533.769,187.89,396.92,244.725
			c-135.302,56.19-210.721,200.677-180.139,345.095c12.755,60.227,12.609,60.442-54.751,73.696
			c-47.734-130.997-33.178-254.326,51.096-365.29c78.093-102.844,184.897-153.863,315.127-151.412
			C721.8,150.46,885.761,314.582,893.742,511.85c7.844,193.845-140.925,368.545-330.419,388.171
			c-11.667,1.21-23.165,4.037-34.84,5.172C463.215,911.543,451.372,895.701,475.227,829.766z"/>
		<path fill-rule="evenodd" clip-rule="evenodd" fill="#FFFFFF" d="M219.837,705.014c11.254-5.356,20.301-10.197,29.754-14.088
			c60.028-24.699,120.141-49.19,188.129-76.975c-11.729,81.562-22.491,156.399-33.17,230.668
			C330.219,845.118,252.763,786.583,219.837,705.014z"/>
		<path fill-rule="evenodd" clip-rule="evenodd" fill="#FFFFFF" d="M181.687,720.856c45.229,90.954,113.316,147.029,213.961,166.648
			c-1.808,19.819-3.532,38.568-5.194,56.707c-93.23,13.483-237.51-96.09-264.598-200.044c6.236-3.349,12.671-7.532,19.657-10.389
			C156.162,729.419,167.178,725.972,181.687,720.856z"/>
	</g>
	<path fill="#FFFFFF" d="M151.323,300.853c0,0,58.177-98.907,157.085-151.268c0,0-96.001-93.087-177.45,0
		C90.234,201.946,104.777,265.946,151.323,300.853z"/>
	<path fill="#FFFFFF" d="M718.151,154.997c0,0,87.271,40.728,154.181,148.358c0,0,87.268-69.815,17.454-148.358
		C819.97,76.454,735.606,120.089,718.151,154.997z"/>
	<path fill="#FFFFFF" d="M520.592,111.237v36.087h-18.625v-36.087h-27.939c0,0-10.475-8.149-8.148-18.626
		c2.328-10.477,3.492-13.969,12.804-13.969c9.313,0,9.313,0,9.313,0h53.549c0,0,12.806,0,12.806,13.969
		c0,13.97-6.988,20.371-15.135,20.371C531.069,112.982,520.592,111.237,520.592,111.237z"/>
</g>
</svg>
