<?xml version="1.0" encoding="utf-8"?>
<!-- Generator: Adobe Illustrator 16.0.0, SVG Export Plug-In . SVG Version: 6.00 Build 0)  -->
<!DOCTYPE svg PUBLIC "-//W3C//DTD SVG 1.1//EN" "http://www.w3.org/Graphics/SVG/1.1/DTD/svg11.dtd">
<svg version="1.1" id="Layer_2" xmlns="http://www.w3.org/2000/svg" xmlns:xlink="http://www.w3.org/1999/xlink" x="0px" y="0px"
	 width="257.279px" height="259.478px" viewBox="0 0 257.279 259.478" enable-background="new 0 0 257.279 259.478"
	 xml:space="preserve">
<path fill="#BE1E2D" d="M36.392,0.977h169.458c0,0,50.694-9.942,50.694,33.595c0,43.538,0,133.658,0,133.658
	s8.089,43.925-29.418,43.925c-37.508,0-70.183-4.163-99.065,47.323c0,0-22.103-47.081-57.524-47.094
	c-35.422-0.014-70.429,7.425-70.429-28.873c0-36.297,0-147.227,0-147.227S-3.862,0.977,36.392,0.977z"/>
<g>
	<path fill="#FFFFFF" d="M119.223,40.597h18.833v44.81l-4.545,59.004h-9.463l-4.824-59.004V40.597z M119.223,157.584h18.461v19.297
		h-18.461V157.584z"/>
</g>
<g>
</g>
<g>
</g>
<g>
</g>
<g>
</g>
<g>
</g>
<g>
</g>
</svg>
